# xmcd CD database file
#
# Track frame offsets:
#	150
#	23425
#	41092
#	57612
#	84987
#	103687
#	123287
#	141000
#	156750
#	172637
#	190225
#	207437
#	225800
#	251275
#
# Disc length: 3618 seconds
#
# Revision: 1
# Processed by: cddbd v1.5.1PL2 Copyright (c) Steve Scherf et al.
# Submitted via: CDex 1.51
#
DISCID=a60e200e
DTITLE=Various Artist - Platinum Jazz
DYEAR=1993
DGENRE=Jazz
TTITLE0=say you love me - patti austin
TTITLE1=i need your love - seawind
TTITLE2=your love - debra laws
TTITLE3=before you break my heart - gene dunlap
TTITLE4=stay awake - ronnie laws
TTITLE5=never existed before - minnie riperton
TTITLE6=tell me why - carla nenson
TTITLE7=happy feeling - carla nenson
TTITLE8=i'm just warming up - eloise laws
TTITLE9=meant for you - debra laws
TTITLE10=still in love - seawind
TTITLE11=you - michael pedicini, j.r.
TTITLE12=sign of the times - bob james
TTITLE13=old san juan - mfsb
EXTD=YEAR: 1993
EXTT0=
EXTT1=
EXTT2=
EXTT3=
EXTT4=
EXTT5=
EXTT6=
EXTT7=
EXTT8=
EXTT9=
EXTT10=
EXTT11=
EXTT12=
EXTT13=
PLAYORDER=
